<mxfile host="app.diagrams.net" modified="2022-01-23T03:40:01.493Z" agent="5.0 (Macintosh; Intel Mac OS X 10_15_7) AppleWebKit/537.36 (KHTML, like Gecko) Chrome/97.0.4692.71 Safari/537.36" etag="G8xRYXGo9JmJMJ3uxJoN" version="16.4.5" type="github">
  <diagram id="ifh8IT0CYQXwoOYbTDBd" name="Page-1">
    <mxGraphModel dx="2253" dy="771" grid="1" gridSize="10" guides="1" tooltips="1" connect="1" arrows="1" fold="1" page="1" pageScale="1" pageWidth="827" pageHeight="1169" math="0" shadow="0">
      <root>
        <mxCell id="0" />
        <mxCell id="1" parent="0" />
        <mxCell id="aDeqJBB10WD4l1W7Roeh-1" value="Iterable" style="rounded=0;whiteSpace=wrap;html=1;" parent="1" vertex="1">
          <mxGeometry x="350" y="150" width="90" height="30" as="geometry" />
        </mxCell>
        <mxCell id="aDeqJBB10WD4l1W7Roeh-5" value="" style="edgeStyle=orthogonalEdgeStyle;rounded=0;orthogonalLoop=1;jettySize=auto;html=1;" parent="1" source="aDeqJBB10WD4l1W7Roeh-2" target="aDeqJBB10WD4l1W7Roeh-1" edge="1">
          <mxGeometry relative="1" as="geometry" />
        </mxCell>
        <mxCell id="aDeqJBB10WD4l1W7Roeh-2" value="Collection" style="rounded=0;whiteSpace=wrap;html=1;fillColor=#f8cecc;strokeColor=#b85450;" parent="1" vertex="1">
          <mxGeometry x="350" y="240" width="90" height="30" as="geometry" />
        </mxCell>
        <mxCell id="aDeqJBB10WD4l1W7Roeh-11" value="" style="edgeStyle=orthogonalEdgeStyle;rounded=0;orthogonalLoop=1;jettySize=auto;html=1;" parent="1" source="aDeqJBB10WD4l1W7Roeh-6" target="aDeqJBB10WD4l1W7Roeh-2" edge="1">
          <mxGeometry relative="1" as="geometry" />
        </mxCell>
        <mxCell id="aDeqJBB10WD4l1W7Roeh-6" value="Queue" style="rounded=0;whiteSpace=wrap;html=1;fillColor=#f8cecc;strokeColor=#b85450;" parent="1" vertex="1">
          <mxGeometry x="350" y="380" width="90" height="30" as="geometry" />
        </mxCell>
        <mxCell id="aDeqJBB10WD4l1W7Roeh-12" style="edgeStyle=orthogonalEdgeStyle;rounded=0;orthogonalLoop=1;jettySize=auto;html=1;exitX=0.5;exitY=0;exitDx=0;exitDy=0;entryX=1;entryY=0.5;entryDx=0;entryDy=0;" parent="1" source="aDeqJBB10WD4l1W7Roeh-7" target="aDeqJBB10WD4l1W7Roeh-2" edge="1">
          <mxGeometry relative="1" as="geometry" />
        </mxCell>
        <mxCell id="aDeqJBB10WD4l1W7Roeh-7" value="List" style="rounded=0;whiteSpace=wrap;html=1;fillColor=#d5e8d4;strokeColor=#82b366;" parent="1" vertex="1">
          <mxGeometry x="860" y="380" width="90" height="30" as="geometry" />
        </mxCell>
        <mxCell id="aDeqJBB10WD4l1W7Roeh-10" style="edgeStyle=orthogonalEdgeStyle;rounded=0;orthogonalLoop=1;jettySize=auto;html=1;entryX=0;entryY=0.5;entryDx=0;entryDy=0;exitX=0.5;exitY=0;exitDx=0;exitDy=0;" parent="1" source="aDeqJBB10WD4l1W7Roeh-8" target="aDeqJBB10WD4l1W7Roeh-2" edge="1">
          <mxGeometry relative="1" as="geometry">
            <Array as="points">
              <mxPoint x="105" y="255" />
            </Array>
          </mxGeometry>
        </mxCell>
        <mxCell id="aDeqJBB10WD4l1W7Roeh-8" value="Set" style="rounded=0;whiteSpace=wrap;html=1;fillColor=#f5f5f5;fontColor=#333333;strokeColor=#666666;" parent="1" vertex="1">
          <mxGeometry x="60" y="380" width="90" height="30" as="geometry" />
        </mxCell>
        <mxCell id="aDeqJBB10WD4l1W7Roeh-14" style="edgeStyle=orthogonalEdgeStyle;rounded=0;orthogonalLoop=1;jettySize=auto;html=1;entryX=0.5;entryY=1;entryDx=0;entryDy=0;" parent="1" source="aDeqJBB10WD4l1W7Roeh-13" target="aDeqJBB10WD4l1W7Roeh-8" edge="1">
          <mxGeometry relative="1" as="geometry" />
        </mxCell>
        <mxCell id="aDeqJBB10WD4l1W7Roeh-13" value="HashSet" style="rounded=0;whiteSpace=wrap;html=1;fillColor=#f5f5f5;fontColor=#333333;strokeColor=#666666;" parent="1" vertex="1">
          <mxGeometry x="-10" y="510" width="90" height="30" as="geometry" />
        </mxCell>
        <mxCell id="WtegEY-Ov11MgWs_Ge0V-2" style="edgeStyle=orthogonalEdgeStyle;rounded=0;orthogonalLoop=1;jettySize=auto;html=1;" edge="1" parent="1" source="aDeqJBB10WD4l1W7Roeh-15" target="aDeqJBB10WD4l1W7Roeh-13">
          <mxGeometry relative="1" as="geometry">
            <mxPoint x="35" y="550" as="targetPoint" />
          </mxGeometry>
        </mxCell>
        <mxCell id="WtegEY-Ov11MgWs_Ge0V-3" style="edgeStyle=orthogonalEdgeStyle;rounded=0;orthogonalLoop=1;jettySize=auto;html=1;entryX=0.5;entryY=1;entryDx=0;entryDy=0;" edge="1" parent="1" source="aDeqJBB10WD4l1W7Roeh-15" target="aDeqJBB10WD4l1W7Roeh-8">
          <mxGeometry relative="1" as="geometry" />
        </mxCell>
        <mxCell id="aDeqJBB10WD4l1W7Roeh-15" value="LinkedListHashSet" style="rounded=0;whiteSpace=wrap;html=1;fillColor=#f5f5f5;fontColor=#333333;strokeColor=#666666;" parent="1" vertex="1">
          <mxGeometry x="-70" y="590" width="115" height="25" as="geometry" />
        </mxCell>
        <mxCell id="WtegEY-Ov11MgWs_Ge0V-5" style="edgeStyle=orthogonalEdgeStyle;rounded=0;orthogonalLoop=1;jettySize=auto;html=1;entryX=0.5;entryY=1;entryDx=0;entryDy=0;" edge="1" parent="1" source="WtegEY-Ov11MgWs_Ge0V-1" target="aDeqJBB10WD4l1W7Roeh-8">
          <mxGeometry relative="1" as="geometry" />
        </mxCell>
        <mxCell id="WtegEY-Ov11MgWs_Ge0V-1" value="SortedSet" style="rounded=0;whiteSpace=wrap;html=1;fillColor=#f5f5f5;fontColor=#333333;strokeColor=#666666;" vertex="1" parent="1">
          <mxGeometry x="130" y="510" width="120" height="30" as="geometry" />
        </mxCell>
        <mxCell id="WtegEY-Ov11MgWs_Ge0V-7" value="" style="edgeStyle=orthogonalEdgeStyle;rounded=0;orthogonalLoop=1;jettySize=auto;html=1;" edge="1" parent="1" source="WtegEY-Ov11MgWs_Ge0V-6" target="WtegEY-Ov11MgWs_Ge0V-1">
          <mxGeometry relative="1" as="geometry" />
        </mxCell>
        <mxCell id="WtegEY-Ov11MgWs_Ge0V-6" value="TreeSet" style="rounded=0;whiteSpace=wrap;html=1;fillColor=#f5f5f5;fontColor=#333333;strokeColor=#666666;" vertex="1" parent="1">
          <mxGeometry x="130" y="590" width="120" height="25" as="geometry" />
        </mxCell>
        <mxCell id="WtegEY-Ov11MgWs_Ge0V-9" value="" style="edgeStyle=orthogonalEdgeStyle;rounded=0;orthogonalLoop=1;jettySize=auto;html=1;" edge="1" parent="1" source="WtegEY-Ov11MgWs_Ge0V-8" target="aDeqJBB10WD4l1W7Roeh-6">
          <mxGeometry relative="1" as="geometry" />
        </mxCell>
        <mxCell id="WtegEY-Ov11MgWs_Ge0V-8" value="Deque" style="rounded=0;whiteSpace=wrap;html=1;fillColor=#f5f5f5;fontColor=#333333;strokeColor=#666666;" vertex="1" parent="1">
          <mxGeometry x="414" y="470" width="120" height="25" as="geometry" />
        </mxCell>
        <mxCell id="WtegEY-Ov11MgWs_Ge0V-11" value="" style="edgeStyle=orthogonalEdgeStyle;rounded=0;orthogonalLoop=1;jettySize=auto;html=1;" edge="1" parent="1" source="WtegEY-Ov11MgWs_Ge0V-10" target="aDeqJBB10WD4l1W7Roeh-6">
          <mxGeometry relative="1" as="geometry" />
        </mxCell>
        <mxCell id="WtegEY-Ov11MgWs_Ge0V-10" value="PriorityQueue" style="rounded=0;whiteSpace=wrap;html=1;fillColor=#f5f5f5;fontColor=#333333;strokeColor=#666666;" vertex="1" parent="1">
          <mxGeometry x="280" y="470" width="120" height="25" as="geometry" />
        </mxCell>
        <mxCell id="WtegEY-Ov11MgWs_Ge0V-15" style="edgeStyle=orthogonalEdgeStyle;rounded=0;orthogonalLoop=1;jettySize=auto;html=1;entryX=1;entryY=0.5;entryDx=0;entryDy=0;" edge="1" parent="1" source="WtegEY-Ov11MgWs_Ge0V-12" target="WtegEY-Ov11MgWs_Ge0V-8">
          <mxGeometry relative="1" as="geometry">
            <Array as="points">
              <mxPoint x="600" y="483" />
            </Array>
          </mxGeometry>
        </mxCell>
        <mxCell id="WtegEY-Ov11MgWs_Ge0V-25" style="edgeStyle=orthogonalEdgeStyle;rounded=0;orthogonalLoop=1;jettySize=auto;html=1;entryX=0;entryY=0.5;entryDx=0;entryDy=0;" edge="1" parent="1" source="WtegEY-Ov11MgWs_Ge0V-12" target="aDeqJBB10WD4l1W7Roeh-7">
          <mxGeometry relative="1" as="geometry">
            <mxPoint x="650" y="400" as="targetPoint" />
            <Array as="points">
              <mxPoint x="600" y="395" />
            </Array>
          </mxGeometry>
        </mxCell>
        <mxCell id="WtegEY-Ov11MgWs_Ge0V-12" value="LinkedList" style="rounded=0;whiteSpace=wrap;html=1;fillColor=#f5f5f5;fontColor=#333333;strokeColor=#666666;" vertex="1" parent="1">
          <mxGeometry x="540" y="560" width="120" height="25" as="geometry" />
        </mxCell>
        <mxCell id="WtegEY-Ov11MgWs_Ge0V-14" value="" style="edgeStyle=orthogonalEdgeStyle;rounded=0;orthogonalLoop=1;jettySize=auto;html=1;" edge="1" parent="1" source="WtegEY-Ov11MgWs_Ge0V-13" target="WtegEY-Ov11MgWs_Ge0V-8">
          <mxGeometry relative="1" as="geometry" />
        </mxCell>
        <mxCell id="WtegEY-Ov11MgWs_Ge0V-13" value="ArrayDeque" style="rounded=0;whiteSpace=wrap;html=1;fillColor=#f5f5f5;fontColor=#333333;strokeColor=#666666;" vertex="1" parent="1">
          <mxGeometry x="414" y="610" width="120" height="25" as="geometry" />
        </mxCell>
        <mxCell id="WtegEY-Ov11MgWs_Ge0V-22" style="edgeStyle=orthogonalEdgeStyle;rounded=0;orthogonalLoop=1;jettySize=auto;html=1;entryX=0.5;entryY=1;entryDx=0;entryDy=0;" edge="1" parent="1" source="WtegEY-Ov11MgWs_Ge0V-16" target="aDeqJBB10WD4l1W7Roeh-7">
          <mxGeometry relative="1" as="geometry" />
        </mxCell>
        <mxCell id="WtegEY-Ov11MgWs_Ge0V-16" value="ArrayList" style="rounded=0;whiteSpace=wrap;html=1;fillColor=#f5f5f5;fontColor=#333333;strokeColor=#666666;" vertex="1" parent="1">
          <mxGeometry x="845" y="510" width="120" height="25" as="geometry" />
        </mxCell>
        <mxCell id="WtegEY-Ov11MgWs_Ge0V-26" style="edgeStyle=orthogonalEdgeStyle;rounded=0;orthogonalLoop=1;jettySize=auto;html=1;exitX=0.5;exitY=0;exitDx=0;exitDy=0;entryX=0.5;entryY=1;entryDx=0;entryDy=0;" edge="1" parent="1" source="WtegEY-Ov11MgWs_Ge0V-17" target="aDeqJBB10WD4l1W7Roeh-7">
          <mxGeometry relative="1" as="geometry" />
        </mxCell>
        <mxCell id="WtegEY-Ov11MgWs_Ge0V-17" value="LinkedList" style="rounded=0;whiteSpace=wrap;html=1;fillColor=#f5f5f5;fontColor=#333333;strokeColor=#666666;" vertex="1" parent="1">
          <mxGeometry x="680" y="510" width="120" height="25" as="geometry" />
        </mxCell>
        <mxCell id="WtegEY-Ov11MgWs_Ge0V-28" style="edgeStyle=orthogonalEdgeStyle;rounded=0;orthogonalLoop=1;jettySize=auto;html=1;entryX=0.5;entryY=1;entryDx=0;entryDy=0;" edge="1" parent="1" source="WtegEY-Ov11MgWs_Ge0V-18" target="aDeqJBB10WD4l1W7Roeh-7">
          <mxGeometry relative="1" as="geometry">
            <Array as="points">
              <mxPoint x="1070" y="460" />
              <mxPoint x="905" y="460" />
            </Array>
          </mxGeometry>
        </mxCell>
        <mxCell id="WtegEY-Ov11MgWs_Ge0V-18" value="Vector" style="rounded=0;whiteSpace=wrap;html=1;fillColor=#f5f5f5;fontColor=#333333;strokeColor=#666666;" vertex="1" parent="1">
          <mxGeometry x="1010" y="510" width="120" height="25" as="geometry" />
        </mxCell>
        <mxCell id="WtegEY-Ov11MgWs_Ge0V-20" value="" style="edgeStyle=orthogonalEdgeStyle;rounded=0;orthogonalLoop=1;jettySize=auto;html=1;" edge="1" parent="1" source="WtegEY-Ov11MgWs_Ge0V-19" target="WtegEY-Ov11MgWs_Ge0V-18">
          <mxGeometry relative="1" as="geometry" />
        </mxCell>
        <mxCell id="WtegEY-Ov11MgWs_Ge0V-19" value="Stack" style="rounded=0;whiteSpace=wrap;html=1;fillColor=#f5f5f5;fontColor=#333333;strokeColor=#666666;" vertex="1" parent="1">
          <mxGeometry x="1010" y="580" width="120" height="25" as="geometry" />
        </mxCell>
      </root>
    </mxGraphModel>
  </diagram>
</mxfile>
